<svg width="375" height="375" viewBox="0 0 375 375" fill="none" xmlns="http://www.w3.org/2000/svg">
<g filter="url(#filter0_d_49_283)">
<path d="M332.578 174.627C332.578 169.797 335.207 165.845 339.588 164.089L353.61 158.38C358.429 156.185 361.497 150.916 360.182 145.647L357.991 135.108C357.115 129.839 352.295 125.887 347.037 125.887H331.701C327.319 125.887 322.938 123.253 321.185 118.862V118.423C319.432 114.032 320.309 109.641 323.376 106.128L333.892 95.1507C337.836 91.1988 338.274 85.4906 335.207 81.0996L329.072 71.8786C326.005 67.4876 320.309 65.7312 315.489 67.9267L301.467 73.635C297.086 75.3913 292.704 74.5132 289.199 71.0004L288.761 70.5613C285.693 67.4876 284.379 62.6576 286.132 58.2666L291.828 44.2155C294.019 39.3855 292.266 33.6772 287.884 30.6036L279.997 25.3344C275.616 22.2607 269.481 23.1389 265.976 26.6517L255.022 37.19C251.954 40.2637 247.135 41.1419 242.753 39.3855H242.315C237.933 37.6291 235.304 33.6772 235.304 28.8472V13.4788C235.304 8.20967 231.36 3.37961 226.102 2.50142L215.586 0.305942C210.328 -0.57225 205.07 2.06233 202.879 6.89238L197.183 20.9434C195.431 25.3344 191.049 27.969 186.667 27.969C182.285 27.969 177.904 25.3344 176.151 20.9434L170.455 6.89238C168.264 2.06233 163.006 -1.01135 157.748 0.305942L147.232 2.94051C141.974 3.81871 138.03 8.64876 138.03 13.9179V29.2863C138.03 33.6772 135.401 38.0682 131.02 39.3855H130.582C126.2 41.1419 121.38 40.2637 118.313 37.19L107.797 26.6517C103.853 22.6998 98.157 22.2607 93.7753 25.3344L84.5737 31.4817C80.192 34.5554 78.4394 40.2637 80.6302 45.0937L86.3264 59.1448C88.0791 63.5358 87.2028 67.9267 83.6974 71.4395L83.2592 71.8786C80.192 74.9522 75.3722 76.2695 70.9905 74.5132L56.9691 68.8049C52.1492 66.6094 46.453 68.3658 43.3858 72.7568L37.6896 81.0996C34.6224 85.4906 35.4988 91.6379 39.0041 95.1507L49.5202 105.689C52.5874 108.763 53.4637 113.593 51.711 117.984V118.423C49.9584 122.814 46.0148 125.448 41.195 125.448H25.8591C20.601 125.448 15.7812 129.4 14.9048 134.669L12.714 145.208C11.8376 150.477 14.4667 155.746 19.2865 157.941L33.3079 163.65C37.6896 165.406 40.3186 169.797 40.3186 174.188C40.3186 178.579 37.6896 182.97 33.3079 184.726L19.2865 190.434C14.4667 192.63 11.3995 197.899 12.714 203.168L14.9048 213.707C15.7812 218.976 20.601 222.928 25.8591 222.928H41.195C45.5767 222.928 49.9584 225.562 51.711 229.953V230.392C53.4637 234.783 52.5874 239.613 49.5202 242.687L39.0041 253.664C35.0606 257.616 34.6224 263.324 37.6896 267.715L43.824 276.936C46.8912 281.327 52.5874 283.084 57.4072 280.888L71.4287 275.18C75.8104 273.424 80.192 274.302 83.6974 277.815L84.1356 278.254C87.2028 281.327 88.5173 286.157 86.7646 290.548L81.0684 304.599C78.8775 309.429 80.6302 315.138 85.0119 318.211L94.2135 324.359C98.5952 327.432 104.73 326.554 108.235 323.041L119.189 312.503C122.256 309.429 127.076 308.551 131.458 310.308H131.896C136.278 312.064 138.907 316.016 138.907 320.846V336.214C138.907 341.483 142.85 346.314 148.108 347.192L158.624 349.387C163.882 350.265 169.14 347.631 171.331 342.801L177.027 328.75C178.78 324.359 183.162 321.724 187.544 321.724C191.925 321.724 196.307 324.359 198.06 328.75L203.756 342.801C205.947 347.631 211.205 350.704 216.463 349.387L226.979 347.192C232.237 346.314 236.18 341.483 236.18 336.214V320.846C236.18 316.455 238.809 312.064 243.191 310.308H243.629C248.011 308.551 252.831 309.429 255.898 312.503L266.414 323.041C270.357 326.993 276.054 327.432 280.435 324.359L289.637 318.211C294.019 315.138 295.771 309.429 293.58 304.599L287.884 290.548C286.132 286.157 287.008 281.766 290.513 278.254L290.951 277.815C294.019 274.741 298.838 273.424 303.22 275.18L317.242 280.888C322.061 283.084 327.758 281.327 330.825 276.936L336.959 267.715C340.026 263.324 339.15 257.177 335.645 253.664L325.129 242.687C322.061 239.613 321.185 234.783 322.938 230.392V229.953C324.69 225.562 328.634 222.928 333.454 222.928H348.79C354.048 222.928 358.868 218.976 359.744 213.707L361.935 203.168C362.811 197.899 360.182 192.63 355.362 190.434L341.341 184.726C335.207 183.409 332.578 179.457 332.578 174.627ZM215.148 61.3403C236.618 66.6094 255.46 78.0259 270.357 93.3943C275.615 98.6634 274.301 107.445 267.728 110.958L241.438 126.326C237.495 128.522 232.237 128.083 228.731 125.009C223.035 119.74 216.024 115.788 208.576 113.154C204.194 111.397 201.127 107.445 201.127 102.615V72.3177C201.127 64.8531 208.137 59.5839 215.148 61.3403ZM172.208 71.8786V102.176C172.208 107.006 169.14 110.958 164.759 112.715C157.31 115.349 150.299 119.301 144.603 124.57C141.098 127.644 135.84 128.083 131.896 125.887L105.606 110.519C99.4715 107.006 98.157 98.2243 102.977 92.9552C117.875 77.5868 136.716 66.1703 158.186 60.9012C165.197 59.5839 172.208 64.853 172.208 71.8786ZM90.7081 213.267C84.5737 216.78 76.2485 213.707 74.4958 206.681C71.4287 196.582 70.1141 185.604 70.1141 174.627C70.1141 163.65 71.8668 152.672 74.4958 142.573C76.6867 135.547 84.5737 132.474 90.7081 135.987L116.56 150.916C120.504 153.111 123.133 157.941 122.256 162.771C121.38 166.723 120.942 170.675 120.942 174.627C120.942 178.579 121.38 182.531 122.256 186.483C123.133 191.313 120.942 195.704 116.56 198.338L90.7081 213.267ZM158.186 287.914C136.716 282.645 117.875 271.228 102.977 255.86C97.7188 250.591 99.0333 241.809 105.606 238.296L131.896 222.928C135.84 220.732 141.098 221.171 144.603 224.245C150.299 229.514 157.31 233.466 164.759 236.1C169.14 237.857 172.208 241.809 172.208 246.639V276.936C172.208 284.401 165.197 289.67 158.186 287.914ZM190.173 196.143C175.275 198.338 163.006 185.604 165.197 171.114C166.511 161.893 173.96 154.429 183.162 153.111C198.06 150.916 210.766 163.65 208.137 178.14C206.823 187.361 199.374 194.825 190.173 196.143ZM201.127 277.375V247.078C201.127 242.248 204.194 238.296 208.576 236.54C216.024 233.905 223.035 229.953 228.731 224.684C232.237 221.61 237.495 221.171 241.438 223.367L267.728 238.735C273.863 242.248 275.177 251.03 270.357 256.299C255.46 271.667 236.618 283.084 215.148 288.353C208.137 289.67 201.127 284.401 201.127 277.375ZM282.626 213.267L256.774 198.338C252.831 196.143 250.202 191.313 251.078 186.483C251.954 182.531 252.393 178.579 252.393 174.627C252.393 170.675 251.954 166.723 251.078 162.771C250.202 157.941 252.393 153.55 256.774 150.916L282.626 135.987C288.761 132.474 297.086 135.547 298.838 142.573C301.906 152.672 303.22 163.65 303.22 174.627C303.22 185.604 301.467 196.582 298.838 206.681C297.086 213.707 289.199 216.78 282.626 213.267Z" fill="#B57124" fill-opacity="0.8" shape-rendering="crispEdges"/>
</g>
<defs>
<filter id="filter0_d_49_283" x="0.000222206" y="0" width="374.51" height="374.51" filterUnits="userSpaceOnUse" color-interpolation-filters="sRGB">
<feFlood flood-opacity="0" result="BackgroundImageFix"/>
<feColorMatrix in="SourceAlpha" type="matrix" values="0 0 0 0 0 0 0 0 0 0 0 0 0 0 0 0 0 0 127 0" result="hardAlpha"/>
<feOffset dy="12.4085"/>
<feGaussianBlur stdDeviation="6.20423"/>
<feComposite in2="hardAlpha" operator="out"/>
<feColorMatrix type="matrix" values="0 0 0 0 0 0 0 0 0 0 0 0 0 0 0 0 0 0 0.25 0"/>
<feBlend mode="normal" in2="BackgroundImageFix" result="effect1_dropShadow_49_283"/>
<feBlend mode="normal" in="SourceGraphic" in2="effect1_dropShadow_49_283" result="shape"/>
</filter>
</defs>
</svg>
